<svg id="Capa_1" enable-background="new 0 0 509.285 509.285" height="512" viewBox="0 0 509.285 509.285" width="512" xmlns="http://www.w3.org/2000/svg"><g><path d="m277.463 81.086c-17.531 13.683-20.65 38.986-6.968 56.517s28.835 15.201 46.366 1.518 57.798-54.607 44.116-72.138c-13.683-17.531-65.984.42-83.514 14.103z" fill="#b4e6a0"/><path d="m287.122 120.152c0 22.866-9.612 41.403-32.478 41.403s-41.402-18.536-41.402-41.402 18.536-41.402 41.402-41.402 32.478 18.535 32.478 41.401z" fill="#ff8087"/><path d="m471.338 420.077-450.554 2.428v-258.025h450.554z" fill="#ff8087"/><path d="m296.042 120.152c0 22.871-18.533 41.404-41.404 41.404-4.472 0-8.779-.708-12.81-2.031 16.584-5.395 28.573-20.984 28.573-39.373s-11.989-33.978-28.573-39.373c4.031-1.323 8.338-2.031 12.81-2.031 22.872.001 41.404 18.543 41.404 41.404z" fill="#e6646e"/><path d="m327.015 144.572c-11.056 8.625-25.199 10.574-37.568 6.43 4.195-1.415 8.236-3.549 11.928-6.43 17.528-13.682 47.639-60.059 33.958-77.587-2.174-2.779-5.323-4.677-9.159-5.815 14.933-2.769 28.707-2 34.799 5.815 13.682 17.527-16.43 63.905-33.958 77.587z" fill="#96d7a5"/><path d="m462.867 164.479h25.64v258.031h-25.64z" fill="#e6646e"/><g fill="#ffe8c8"><path d="m458.353 196.702c-20.82 0-32.527-7.834-40.275-13.018-5.094-3.409-6.013-4.023-10.659-4.023-4.644 0-5.561.614-10.655 4.023-7.747 5.184-19.453 13.018-40.273 13.018s-32.526-7.834-40.273-13.018c-5.093-3.408-6.011-4.023-10.656-4.023-4.643 0-5.561.614-10.654 4.022-7.747 5.184-19.453 13.019-40.273 13.019s-32.526-7.835-40.272-13.019c-5.092-3.408-6.011-4.022-10.654-4.022-4.644 0-5.562.614-10.655 4.023-7.747 5.184-19.454 13.018-40.274 13.018-20.819 0-32.525-7.835-40.272-13.018-5.093-3.408-6.011-4.023-10.655-4.023s-5.561.614-10.655 4.023c-7.747 5.184-19.453 13.018-40.273 13.018s-32.526-7.835-40.273-13.018c-6.655-4.456-10.652-11.939-10.652-19.95v-6.29c0-18.936 20.94-30.461 36.886-20.249 1.211.775 2.335 1.528 3.387 2.232 5.093 3.408 6.011 4.023 10.655 4.023s5.562-.614 10.655-4.023c7.747-5.184 19.453-13.018 40.273-13.018s32.526 7.835 40.273 13.019c5.092 3.408 6.011 4.022 10.654 4.022 4.645 0 5.562-.614 10.656-4.023 7.747-5.184 19.453-13.018 40.273-13.018s32.526 7.835 40.272 13.019c5.092 3.408 6.011 4.022 10.654 4.022 4.644 0 5.562-.614 10.655-4.023 7.747-5.184 19.453-13.018 40.272-13.018 20.82 0 32.527 7.835 40.274 13.018 5.092 3.408 6.011 4.023 10.655 4.023s5.562-.614 10.655-4.023c7.747-5.184 19.453-13.018 40.273-13.018 20.821 0 32.528 7.834 40.275 13.018 5.094 3.409 6.012 4.023 10.659 4.023 4.646 0 5.565-.614 10.659-4.023 1.049-.702 2.171-1.452 3.378-2.225 15.951-10.216 20.949 1.761 20.949 20.703 0 0 3.633 17.065-3.027 21.522-.003-.002-11.141 17.275-31.962 17.275z"/><path d="m458.353 331.862c-20.82 0-32.527-7.834-40.275-13.018-5.094-3.409-6.013-4.023-10.659-4.023-4.644 0-5.561.614-10.655 4.023-7.747 5.184-19.453 13.018-40.273 13.018s-32.526-7.834-40.273-13.018c-5.093-3.408-6.011-4.023-10.656-4.023-4.643 0-5.561.614-10.654 4.022-7.747 5.184-19.453 13.019-40.273 13.019s-32.526-7.835-40.272-13.019c-5.092-3.408-6.011-4.022-10.654-4.022-4.644 0-5.562.614-10.655 4.023-7.747 5.184-19.454 13.018-40.274 13.018-20.819 0-32.525-7.835-40.272-13.018-5.093-3.408-6.011-4.023-10.655-4.023s-5.561.614-10.655 4.023c-7.747 5.184-19.453 13.018-40.273 13.018s-32.526-7.835-40.273-13.018c-6.655-4.456-10.652-11.939-10.652-19.95v-6.29c0-18.936 20.94-30.461 36.886-20.249 1.211.775 2.335 1.528 3.387 2.232 5.093 3.408 6.011 4.023 10.655 4.023s5.562-.614 10.655-4.023c7.747-5.184 19.453-13.018 40.273-13.018s32.526 7.835 40.273 13.019c5.092 3.408 6.011 4.022 10.654 4.022 4.645 0 5.562-.614 10.656-4.023 7.747-5.184 19.453-13.018 40.273-13.018s32.526 7.835 40.272 13.019c5.092 3.408 6.011 4.022 10.654 4.022 4.644 0 5.562-.614 10.655-4.023 7.747-5.184 19.453-13.018 40.272-13.018 20.82 0 32.527 7.835 40.274 13.018 5.092 3.408 6.011 4.023 10.655 4.023s5.562-.614 10.655-4.023c7.747-5.184 19.453-13.018 40.273-13.018 20.821 0 32.528 7.834 40.275 13.018 5.094 3.409 6.012 4.023 10.659 4.023 4.646 0 5.565-.614 10.659-4.023 1.049-.702 2.171-1.452 3.378-2.225 15.951-10.216 29.558 22.304 29.558 22.304 0 8.014 3.341 19.723-3.32 24.18-7.751 5.182-19.457 13.016-40.278 13.016z"/><path d="m496.979 397.133h-484.672c-6.797 0-12.307 5.51-12.307 12.307v27.825c0 6.797 5.51 12.307 12.307 12.307h484.672c6.797 0 1.707-37.321 1.707-37.321.001-6.797 5.09-15.118-1.707-15.118z"/></g><path d="m509.285 409.444v27.825c0 6.789-5.507 12.307-12.307 12.307h-25.64c6.8 0 12.307-5.518 12.307-12.307v-27.825c0-6.8-5.507-12.307-12.307-12.307h25.64c6.8-.001 12.307 5.507 12.307 12.307z" fill="#fdd9b4"/><path d="m509.285 292.617v6.266c0 8.02-4 15.507-10.656 19.958-3.877 2.595-8.738 5.846-15.24 8.461-6.379 2.564-14.358 4.502-24.522 4.554 5.948-2.585 10.471-5.682 14.123-8.184 6.656-4.564 10.656-12.246 10.656-20.461v-6.42c0-10.482-6.092-18.748-14.215-22.481.923-.626 1.918-1.282 2.964-1.949 15.948-10.214 36.89 1.313 36.89 20.256z" fill="#fdd9b4"/><path d="m509.285 157.453v6.277c0 8.01-4 15.497-10.656 19.958-3.877 2.584-8.738 5.846-15.24 8.451-6.492 2.605-14.625 4.564-25.035 4.564-2.851 0-5.528-.144-8.041-.42 2.697-.708 5.169-1.559 7.436-2.492 6.502-2.677 11.364-6.01 15.24-8.666 6.656-4.574 10.656-12.246 10.656-20.461v-6.43c0-9.22-4.728-16.728-11.394-20.943.051-.031.092-.062.144-.092 15.948-10.216 36.89 1.311 36.89 20.254z" fill="#fdd9b4"/></g></svg>