<svg height="512" viewBox="0 0 512 512" width="512" xmlns="http://www.w3.org/2000/svg"><g id="Flat"><path d="m488 200-6.46 4.31006a85.90927 85.90927 0 0 0 -38.03 77.49l-83.51-97.80006z" fill="#e6e6e6"/><path d="m376 288-6.75 65.29-8.11 78.37988-108.80993.26h-.19007a68.13133 68.13133 0 0 1 -48.17-19.96 68.17391 68.17391 0 0 0 -48.21-19.96988h-11.76l-64 96a257.61357 257.61357 0 0 0 -55.64-199.56006l-.36-.43994 104 56z" fill="#2b7cd4"/><path d="m160 392 24 64 72-24-48-40z" fill="#ccc"/><path d="m168.88 415.67 51.11-10.23 3.14 15.69-48.56 9.71z" fill="#b3b3b3"/><path d="m177.39241 332.11053 13.80328 17.73683a202.69953 202.69953 0 0 0 82.12155 62.6655l8.69681 3.61732a202.69931 202.69931 0 0 0 79.12595 15.53974l-10.80667-105.33659z" fill="#104f91"/><path d="m456 328.85v7.96008a94.84718 94.84718 0 0 1 -141.84009 82.39992l-75.27991-42.93a361.41041 361.41041 0 0 1 -126.17-120.28q-5.00994-7.875-9.6-16a361.4851 361.4851 0 0 1 -46.74-170.34009c-.06995-2.72-.09-5.45-.09-8.17993l.01-8.14.04-29.01 30.62.04002a361.65952 361.65952 0 0 1 201.05 61.33q8.025 5.38514 15.77 11.2a361.42206 361.42206 0 0 1 96.88 109.86l42.86 75.04a94.81885 94.81885 0 0 1 12.49 47.05z" fill="#3ea7ff"/><path d="m369.25 353.29-8.11 78.37988-108.80993.26h-.19007a68.13133 68.13133 0 0 1 -48.17-19.96 68.17391 68.17391 0 0 0 -48.21-19.96988h-11.76v-17.67z" fill="#e6e6e6"/><path d="m361.14 431.66992h-1.27a202.64237 202.64237 0 0 1 -77.86-15.53992l-8.68994-3.62a202.23118 202.23118 0 0 1 -65.76-44.12l145.68994-13.61z" fill="#e6e6e6"/><path d="m361.14 431.66992h-1.27a202.64237 202.64237 0 0 1 -77.86-15.53992l-8.68994-3.62a202.23118 202.23118 0 0 1 -65.76-44.12l145.68994-13.61z" fill="#ccc"/><path d="m303.77 96.8999c-4.65 88.52002-78.12 159.1001-167.77 159.1001h-23.29q-5.00994-7.875-9.6-16h32.89c83.81006 0 152-68.18994 152-152v-2.3q8.025 5.38509 15.77 11.1999z" fill="#2b7cd4"/><path d="m160 192v-16a64.0727 64.0727 0 0 0 64-64h16a80.09041 80.09041 0 0 1 -80 80z" fill="#2b7cd4"/><path d="m428.22 403.89a94.84755 94.84755 0 0 1 -114.06006 15.32l-75.27994-42.93a361.41041 361.41041 0 0 1 -126.17-120.28q-5.00994-7.875-9.6-16a361.4851 361.4851 0 0 1 -46.74-170.34009c-.06995-2.72-.09-5.45-.09-8.17993l.01-8.14.04-29.01 108.54992 79.11q26.19014 19.08 50.88 39.94006 6.21 5.22 12.32007 10.58 14.64 12.795 28.71 26.21 5.81982 5.56512 11.55 11.21008a910.431 910.431 0 0 1 159.88001 212.50988z" fill="#e6e6e6"/><path d="m127.91992 126.87-15.83984 2.26a71.01861 71.01861 0 0 0 -55.71008-59.47009c-.06995-2.72-.09-5.45-.09-8.17993l.01-8.14 1.61.3a87.04034 87.04034 0 0 1 70.01992 73.23002z" fill="#ccc"/><circle cx="156" cy="76" fill="#808080" r="12"/><path d="m268.34009 191.38a167.81387 167.81387 0 0 1 -132.34009 64.62h-23.29q-5.00994-7.875-9.6-16h32.89a151.84012 151.84012 0 0 0 120.79-59.83008q5.81986 5.56508 11.55009 11.21008z" fill="#ccc"/><path d="m228.08008 153.96a80.00609 80.00609 0 0 1 -68.08008 38.04v-16a64.03449 64.03449 0 0 0 55.76-32.62q6.21 5.22 12.32008 10.58z" fill="#ccc"/><path d="m320 328-38.72 3.87a47.9903 47.9903 0 0 1 -51.34009-36.12l-4.77-19.06006a63.54377 63.54377 0 0 0 22.83009-13.48994z" fill="#b3b3b3"/><path d="m204.91992 288h-4.91992v-16h4.91992a55.66146 55.66146 0 0 0 37.66162-14.68555 55.99469 55.99469 0 0 0 13.99121-20.28711l14.8545 5.94532a72.0891 72.0891 0 0 1 -18.01125 26.11523 71.66189 71.66189 0 0 1 -48.49608 18.91211z" fill="#ccc"/><path d="m259.556 388 60.444 68v-56z" fill="#b3b3b3"/><path d="m120.61 400.97-40.61 87.03a257.36147 257.36147 0 0 0 .5-69.17993q-1.26014-9.765-3.25-19.39014a255.33531 255.33531 0 0 0 -8.33008-30.63993q-2.92493-8.655-6.48-17.1001a257.375 257.375 0 0 0 -38.07995-63.25l-.35997-.4399 82.39 58.85a43.78172 43.78172 0 0 1 14.22 54.12z" fill="#e6e6e6"/><g fill="#ccc"><path d="m124.33008 376.7-1.5-.21-42.33008 42.33007q-1.26014-9.765-3.25-19.39014l25.78-25.77-34.11008-4.86993q-2.92493-8.655-6.48-17.1001l54.73 7.82007.64014-.64a43.60821 43.60821 0 0 1 6.52002 17.83003z"/><path d="m459.91992 224.99a84.88283 84.88283 0 0 0 -8.23 13.76l-24.12988-16.09009 8.8799-13.31991z"/></g></g></svg>