<?xml version="1.0" encoding="iso-8859-1"?>
<!-- Generator: Adobe Illustrator 19.0.0, SVG Export Plug-In . SVG Version: 6.00 Build 0)  -->
<svg version="1.1" id="Capa_1" xmlns="http://www.w3.org/2000/svg" xmlns:xlink="http://www.w3.org/1999/xlink" x="0px" y="0px"
	 viewBox="0 0 512 512" style="enable-background:new 0 0 512 512;" xml:space="preserve">
<path style="fill:#4BBAED;" d="M363.14,61.689V0H152.942v61.401L105.5,150.79V512h301V151.078L363.14,61.689z"/>
<path style="fill:#93D6F4;" d="M363.14,61.689l-210.198-0.288L105.5,150.79l301,0.288L363.14,61.689z"/>
<g>
	<polygon style="fill:#388CB2;" points="196.487,151.078 152.942,61.401 105.5,150.79 105.5,240.817 196.487,240.817 	"/>
	<rect x="105.5" y="425" style="fill:#388CB2;" width="90.99" height="87"/>
</g>
<rect x="196.49" y="240.82" style="fill:#93D6F4;" width="210.01" height="184.18"/>
<path style="fill:#FFFFFF;" d="M332.211,297.379c-8.445-10.952-16.811-19.518-17.164-19.877l-10.714-10.935l-10.714,10.935
	c-0.353,0.359-8.719,8.926-17.164,19.877c-13.046,16.917-19.122,29.931-19.122,40.954c0,25.916,21.084,47,47,47s47-21.084,47-47
	C351.333,327.31,345.257,314.296,332.211,297.379z"/>
<path style="fill:#DBF1FB;" d="M304.333,385.333c25.916,0,47-21.084,47-47c0-11.023-6.076-24.037-19.122-40.954
	c-8.445-10.952-16.811-19.518-17.164-19.877l-10.714-10.935V385.333z"/>
<g>
</g>
<g>
</g>
<g>
</g>
<g>
</g>
<g>
</g>
<g>
</g>
<g>
</g>
<g>
</g>
<g>
</g>
<g>
</g>
<g>
</g>
<g>
</g>
<g>
</g>
<g>
</g>
<g>
</g>
</svg>
