<?xml version="1.0" encoding="iso-8859-1"?>
<!-- Generator: Adobe Illustrator 19.0.0, SVG Export Plug-In . SVG Version: 6.00 Build 0)  -->
<svg version="1.1" id="Layer_1" xmlns="http://www.w3.org/2000/svg" xmlns:xlink="http://www.w3.org/1999/xlink" x="0px" y="0px"
	 viewBox="0 0 512 512" style="enable-background:new 0 0 512 512;" xml:space="preserve">
<g>
	<path style="fill:#1D1D1F;" d="M348.024,403.585c0.58-14.122-8.448-28.366-27.117-39.145
		c-36.064-20.822-94.343-20.817-130.172,0.006c-17.853,10.375-26.759,23.965-26.74,37.566c0-0.043-0.005-0.087-0.005-0.13
		l-0.066,23.086c-0.039,13.731,9.023,27.483,27.17,37.961c36.064,20.822,94.343,20.817,130.164-0.001
		c17.802-10.346,26.715-23.885,26.753-37.442l0.066-23.086C348.075,402.794,348.041,403.189,348.024,403.585z"/>
	<path style="fill:#1D1D1F;" d="M348.076,402.398l-0.066,23.086c-0.039,13.559-8.951,27.098-26.753,37.442
		c-35.821,20.817-94.1,20.823-130.164,0.001c-18.147-10.477-27.208-24.229-27.17-37.961l0.066-23.086
		c-0.039,13.731,9.023,27.483,27.17,37.961c36.064,20.822,94.342,20.817,130.164-0.001
		C339.126,429.496,348.038,415.957,348.076,402.398z"/>
</g>
<path style="fill:#3E3D43;" d="M320.908,364.441c36.064,20.822,36.245,54.579,0.415,75.401
	c-35.821,20.817-94.1,20.822-130.164,0.001c-36.064-20.822-36.246-54.579-0.424-75.396
	C226.566,343.624,284.844,343.619,320.908,364.441z"/>
<path style="fill:#57565C;" d="M511.978,202.177c0.508-37.629-23.547-75.433-72.407-104.642
	c-98.546-58.91-260.62-60.547-362.003-3.658c-51.861,29.101-77.781,67.88-77.552,106.705c-0.005-0.248-0.011-0.512-0.016-0.753
	c-0.001,0.286,0.013,0.572,0.015,0.858c0.004,0.573,0.015,1.144,0.03,1.717c0.013,0.471,0.024,0.943,0.044,1.414
	c-0.006-0.247-0.014-0.495-0.019-0.739c0.014,0.379,0.024,0.759,0.042,1.138c-0.006-0.133-0.017-0.265-0.023-0.399
	c0.155,5.925,0.436,12.734,0.786,18.099c0.258,3.96,0.884,9.22,1.422,13.152c0.54,3.945,1.295,9.206,2.103,13.104
	c1.417,6.833,3.503,15.907,5.312,22.646c1.047,3.899,2.701,9.025,4.006,12.845c1.322,3.87,3.141,9.018,4.745,12.779
	c2.75,6.45,6.621,14.967,9.71,21.262c1.871,3.813,4.698,8.726,6.817,12.407c2.186,3.798,5.253,8.783,7.749,12.384
	c4.066,5.865,9.728,13.519,14.107,19.153c2.906,3.738,7.14,8.432,10.32,11.94c2.422,2.672,5.783,6.115,8.345,8.653
	c3.699,3.663,8.839,8.337,12.746,11.779c2.752,2.425,6.525,5.544,9.444,7.768c4.809,3.664,11.327,8.418,16.337,11.801
	c4.097,2.766,9.739,6.186,14.003,8.685c5.468,3.204,13.027,7.001,18.708,9.81c3.304,1.633,7.833,3.555,11.228,4.989
	c4.568,1.931,10.778,4.221,15.463,5.85c3.902,1.356,9.156,3.027,13.145,4.098c6.861,1.843,16.107,3.921,23.063,5.364
	c3.576,0.742,8.404,1.416,12.022,1.916c3.423,0.473,8,1.052,11.447,1.285c6.815,0.46,15.916,0.989,22.747,1.023
	c3.428,0.017,8.001-0.097,11.426-0.248c3.425-0.15,7.982-0.525,11.403-0.755c3.612-0.245,8.396-0.928,11.991-1.35
	c6.256-0.735,19.353-3.215,24.803-4.648c4.704-1.236,11.015-2.765,15.64-4.274c7.046-2.299,16.334-5.693,23.23-8.406
	c4.938-1.944,11.311-5.046,16.079-7.377c3.456-1.69,7.961-4.145,11.32-6.022c5.4-3.018,16.3-9.462,28.624-18.721
	c4.181-3.141,9.6-7.54,13.563-10.952c3.67-3.159,8.476-7.484,11.867-10.939c5.085-5.183,11.668-12.289,16.444-17.758
	c2.923-3.347,6.536-8.051,9.2-11.606c2.582-3.445,5.945-8.106,8.255-11.74c3.797-5.972,8.688-14.049,12.089-20.256
	c1.977-3.608,4.4-8.535,6.144-12.261c1.722-3.677,3.953-8.616,5.405-12.408c2.502-6.529,5.588-15.332,7.737-21.985
	c1.223-3.786,2.546-8.929,3.494-12.792c3.372-13.74,4.734-24.284,4.746-24.384c0.479-3.926,1.267-9.146,1.557-13.09
	c0.256-3.496,0.654-8.156,0.821-11.657c0.168-3.515,0.297-8.208,0.297-11.727C512,201.564,511.983,201.87,511.978,202.177z"/>
<path style="fill:#1D1D1F;" d="M140.369,393.964c-7.606-4.683-17.392-11.511-24.503-16.916c-4.959-3.769-11.298-9.185-15.672-13.62
	c-6.769-6.865-15.656-16.201-21.614-23.779c-5.955-7.575-13.252-18.216-17.997-26.602c-4.215-7.449-9.466-17.628-12.655-25.57
	c-3.892-9.694-8.212-22.977-10.892-33.074c-2.131-8.024-3.944-18.987-4.925-27.231c-0.968-8.133-1.417-19.068-1.561-27.257
	c0.096-33.97,22.935-67.845,68.311-93.308l0,0c89.285-50.1,232.018-48.658,318.803,3.221c42.679,25.514,63.88,58.473,63.787,91.344
	l0,0c-0.23,5.416-0.113,12.672-0.768,18.052c-1.29,10.595-2.946,24.808-5.708,35.12c-2.102,7.848-4.997,18.327-8.019,25.868
	c-1.922,4.795-4.488,11.193-6.695,15.863c-2.425,5.131-5.858,11.888-8.734,16.78c-5.04,8.57-12.494,19.583-18.603,27.428
	c-5.442,6.987-13.504,15.667-19.805,21.891c-5.185,5.121-12.483,11.59-18.327,15.943c-3.556,2.649-8.255,6.245-11.948,8.7
	c-4.87,3.237-11.486,7.379-16.578,10.257c-7.001,3.957-16.677,8.65-24.109,11.72c-4.039,1.668-9.496,3.717-13.626,5.142
	c-3.646,1.258-8.547,2.839-12.283,3.796c-3.229,0.828-7.507,2.051-10.774,2.706c-3.192,0.639-7.434,1.565-10.64,2.125
	c-3.196,0.559-7.478,1.183-10.696,1.604c-3.088,0.404-7.218,0.877-10.328,1.055c-3.016,0.173-7.033,0.465-10.052,0.568
	c-3.008,0.103-7.023,0.163-10.032,0.121c-6.039-0.083-14.079-0.631-20.1-1.098c-3.093-0.24-7.197-0.795-10.264-1.259
	c-3.155-0.478-7.353-1.172-10.485-1.785c-3.223-0.63-7.484-1.644-10.689-2.354c-3.285-0.728-7.583-2.038-10.822-2.95
	c-5.7-1.606-16.873-5.563-24.42-8.893c-3.643-1.607-8.482-3.797-12.025-5.612C150.487,399.689,144.61,396.575,140.369,393.964z"/>
<path style="fill:#E0E0E2;" d="M42.246,181.608c1.917-4.26,1.892-10.99,4.01-15.154c3.021-5.938,5.528-14.745,9.032-20.411
	c2.415-3.904,9.282-6.551,12.004-10.245c4.198-5.698,5.486-16.762,10.182-22.058c2.974-3.354,8.566-6.427,11.803-9.528
	c5.743-5.499,11.611-15.12,17.787-20.128c3.353-2.72,10.696-2.652,14.276-5.065c6.035-4.068,13.442-10.479,19.712-14.174l2.087,3.95
	c7.11-3.725,13.498-15.219,20.906-18.308c10.921-4.555,15.772-6.63,26.519-9.906c3.743-1.141,10.231,2.629,14.045,1.753
	c3.268-0.751,8.003,0.703,11.304,0.108c6.564-1.185,13.267-5.676,21.231-6.342c3.185-0.266,7.468,2.874,10.664,2.834
	c3.132-0.04,7.255-3.211,10.386-3.18c3.132,0.031,7.375-2.397,10.505-2.295c6.976,0.228,16.974,2.388,21.203,2.951
	c4.283,0.571,13.281,5.387,21.295,7.391c9.077,2.27,15.208,2.109,23.828,5.132c4.078,1.43,7.966,6.997,11.94,8.698
	c3.631,1.554,11.565-3.217,15.135-1.526c4.842,2.295,10.986,6.756,15.57,9.533c3.662,2.217,4.657,9.915,8.776,12.744
	c4.118,2.829,8.847,4.669,12.279,7.228c4.718,3.518,10.664,8.401,14.909,12.478c5.809,5.58,14.99,11.663,20.212,17.796
	c2.942,3.456,4.239,9.163,7.421,13.397c3.182,4.234,9.894,5.945,12.478,9.674c4.096,5.912,5.974,16.159,9.316,22.527
	c3.124,5.951,6.721,14.102,9.33,20.296c2.41,5.965,4.725,10.333,5.655,16.404c0.955,6.237-2.826,13.516-3.43,19.759
	c-0.595,6.145,1.642,12.514-0.46,18.563c-1.994,5.738-5.858,10.591-9.206,16.153c-3.107,5.163-6.158,10.366-10.429,15.306
	c-3.932,4.548-4.63,12.984-9.547,17.288c-4.53,3.964-14.631,1.206-19.995,4.918c-4.962,3.435-6.166,13.286-11.842,16.471
	c-5.533,3.104-14.792-0.984-20.713,1.721c-5.777,2.638-11.383,5.106-17.48,7.365c-5.964,2.209-11.709,4.485-17.933,6.331
	c-6.108,1.812-12.234,2.841-18.547,4.304c-6.218,1.44-11.238,8.721-17.613,9.822c-6.301,1.089-12.922,0.677-19.335,1.435
	c-6.361,0.751-12.908-0.42-19.34,0.006c-6.402,0.425-12.762,0.879-19.196,0.982c-6.427,0.103-12.753-1.475-19.173-1.692
	c-6.436-0.217-12.706-0.814-19.096-1.352c-6.428-0.541-12.656-1.374-18.999-2.24c-6.403-0.875-13.433,2.496-19.708,1.292
	c-6.358-1.221-11.801-6.275-17.986-7.835c-6.289-1.586-13.068-1.026-19.132-2.963c-6.19-1.976-11.723-5.484-17.632-7.824
	c-6.05-2.396-12.857-2.864-18.563-5.641c-5.858-2.852-10.661-7.498-16.103-10.751c-5.416-3.238-13.363-2.533-18.081-5.998
	c-5.098-3.744-6.027-12.354-10.309-16.326c-4.644-4.306-11.828-5.923-15.514-10.446c-3.995-4.904-8.345-9.828-11.215-14.926
	c-3.084-5.475-5.349-11.738-7.138-17.36c-1.879-5.907-4.966-12.317-5.419-18.295c-0.458-6.058,0.783-13.026,1.789-19.062
	C31.677,191.311,39.879,187.373,42.246,181.608z"/>
<path style="fill:#D8D8DA;" d="M478.045,198.179c-0.929-6.071-3.245-10.438-5.655-16.404c-2.609-6.194-6.206-14.346-9.33-20.296
	c-3.343-6.369-5.22-16.614-9.316-22.527c-2.583-3.729-9.297-5.44-12.478-9.674c-3.183-4.235-4.48-9.942-7.421-13.397
	c-5.221-6.133-14.403-12.217-20.212-17.796c-2.504-2.405-5.6-5.087-8.686-7.607c-0.921,0.379-1.674,0.498-2.179,0.231
	c-1.19-0.63-2.037-2.195-2.749-4.123c-0.437-0.332-0.876-0.668-1.295-0.98c-3.431-2.559-8.161-4.399-12.279-7.228
	c-1.872-1.286-3.098-3.578-4.224-5.904c-4.07,0.054-8.196,0.23-12.746-1.176c-6.98-2.156-13.413-11.03-17.786-13.752
	c-1.837,0.411-3.519,0.597-4.725,0.08c-1.343-0.575-2.675-1.593-4.009-2.743c-4.623-1.409-10.196-3.074-14.519-3.249
	c-3.13-0.126-7.568,7.516-10.699,7.477c-3.132-0.039-7.114,9.268-10.245,9.316c-3.196,0.049-7.553-9.9-10.738-9.57
	c-7.963,0.822-12.893,12.55-19.457,14.013c-3.3,0.736-8.96-5.093-12.229-4.165c-3.813,1.083-14.006-12.074-17.749-10.665
	c-10.748,4.047-15.871,7.815-26.793,13.442c-7.407,3.816-5.869,28.69-12.979,33.292l-7.325-11.223
	c-6.271,4.565-11.7,14.401-17.734,19.427c-3.58,2.981-17.535-2.499-20.888,0.86c-6.175,6.187-7.454,21.689-13.197,28.483
	c-3.237,3.831-12.463,5.672-15.436,9.816c-4.696,6.543,3.863,25.072-0.335,32.111c-2.723,4.565-17.387,4.448-19.802,9.27
	c-3.505,7-2.399,19.135-5.42,26.472c-2.118,5.144,2.844,14.648,0.927,19.91c-2.598,7.818-16.811,12.095-17.737,20.074
	c-0.939,8.083,5.872,16.141,6.651,24.24c0.487,5.068-0.419,10.308-0.529,15.468c5.383,3.249,10.156,7.836,15.963,10.662
	c5.706,2.777,12.512,3.245,18.563,5.641c5.91,2.341,11.442,5.847,17.632,7.824c6.065,1.936,12.844,1.376,19.132,2.963
	c6.185,1.56,11.628,6.613,17.986,7.835c6.275,1.205,13.305-2.165,19.708-1.29c6.343,0.866,12.57,1.699,18.999,2.24
	c6.39,0.538,12.66,1.135,19.096,1.352c6.42,0.216,12.746,1.796,19.173,1.692c6.435-0.103,12.794-0.557,19.196-0.982
	c6.432-0.427,12.979,0.745,19.34-0.006c6.414-0.758,13.035-0.347,19.336-1.435c6.375-1.101,11.395-8.382,17.613-9.822
	c6.313-1.462,12.44-2.492,18.547-4.304c6.223-1.845,11.968-4.121,17.933-6.331c6.097-2.258,11.703-4.726,17.48-7.365
	c5.922-2.705,15.18,1.383,20.713-1.721c5.676-3.185,6.88-13.036,11.842-16.471c5.365-3.713,15.466-0.955,19.994-4.918
	c4.918-4.304,5.615-12.74,9.547-17.288c4.272-4.94,7.323-10.144,10.429-15.306c3.348-5.563,7.212-10.417,9.206-16.153
	c2.102-6.049-0.135-12.419,0.46-18.563C475.217,211.695,478.999,204.416,478.045,198.179z"/>
<g>
	<path style="fill:#E0E0E2;" d="M177.315,177.833c0,0,0.567,15.456,4.357,16.919s17.105-1.852,17.105-1.852l2.859-11.061
		L177.315,177.833z"/>
	<path style="fill:#E0E0E2;" d="M156.576,265.703c-2.025-0.901-10.972-20.817-5.747-24.253s10.098-6.049,10.098-6.049
		s8.188-1.567,8.188-6.792s4.702-16.719,6.269-16.719c1.567,0,27.69,1.045,31.347,0s23.511-17.764,25.078-16.719
		c1.567,1.045,7.314,3.135,8.882,5.225c1.567,2.09-13.584,11.494-18.808,19.853s-29.258,22.482-29.258,27.699
		s-17.241,3.126-17.241,3.126s3.135,8.359,3.135,10.449C178.52,263.613,161.278,267.792,156.576,265.703z"/>
</g>
<path style="fill:#2E2E30;" d="M381.756,423.534c-3.358,1.877-7.864,4.332-11.32,6.022c-4.768,2.331-11.14,5.434-16.078,7.377
	c-6.896,2.714-16.185,6.109-23.23,8.406c-4.624,1.509-10.936,3.038-15.64,4.274c-5.45,1.433-18.547,3.913-24.803,4.648
	c-3.596,0.422-8.38,1.106-11.991,1.35c-3.421,0.231-7.978,0.605-11.403,0.755c-3.425,0.15-7.998,0.264-11.426,0.248
	c-6.831-0.033-15.932-0.563-22.747-1.023c-3.448-0.233-8.024-0.812-11.447-1.285c-3.617-0.501-8.446-1.174-12.022-1.916
	c-6.955-1.443-16.202-3.521-23.063-5.364c-3.989-1.072-9.243-2.742-13.145-4.098c-4.684-1.629-10.894-3.919-15.463-5.85
	c-3.395-1.435-7.924-3.356-11.228-4.989c-5.681-2.809-13.24-6.605-18.708-9.81c-4.265-2.499-9.907-5.918-14.004-8.685
	c-5.011-3.383-11.529-8.137-16.337-11.801c-2.917-2.224-6.691-5.344-9.444-7.768c-3.907-3.442-9.046-8.116-12.746-11.779
	c-2.562-2.538-5.923-5.981-8.345-8.653c-3.18-3.508-7.414-8.203-10.32-11.94c-4.379-5.634-10.043-13.288-14.107-19.153
	c-2.496-3.602-5.563-8.586-7.749-12.384c-2.119-3.681-4.946-8.594-6.817-12.407c-3.09-6.295-6.96-14.812-9.71-21.262
	c-1.604-3.762-3.423-8.909-4.745-12.779c-1.304-3.82-2.959-8.947-4.006-12.845c-1.81-6.74-3.894-15.814-5.312-22.646
	c-0.809-3.899-1.563-9.16-2.103-13.104c-0.538-3.932-1.164-9.192-1.422-13.152c-0.429-6.618-0.76-15.457-0.874-22.088
	c-0.106,37.325,23.967,74.751,72.429,103.722c98.546,58.91,260.619,60.547,362.003,3.658
	c51.526-28.913,77.458-67.378,77.568-105.952c0,3.519-0.128,8.212-0.297,11.727c-0.167,3.501-0.564,8.161-0.821,11.657
	c-0.289,3.944-1.078,9.164-1.557,13.09c-0.013,0.1-1.374,10.645-4.746,24.384c-0.948,3.863-2.272,9.006-3.494,12.792
	c-2.148,6.654-5.235,15.456-7.737,21.985c-1.453,3.791-3.684,8.731-5.405,12.408c-1.745,3.726-4.167,8.653-6.144,12.261
	c-3.4,6.206-8.291,14.284-12.089,20.256c-2.31,3.633-5.673,8.294-8.255,11.74c-2.664,3.556-6.278,8.259-9.2,11.606
	c-4.776,5.469-11.359,12.576-16.444,17.758c-3.391,3.457-8.197,7.78-11.867,10.939c-3.963,3.412-9.382,7.811-13.564,10.952
	C398.057,414.072,387.156,420.516,381.756,423.534z"/>
<path style="fill:#57565C;" d="M481.436,201.661c-0.307,33.806-23.136,67.478-68.296,92.819
	c-89.285,50.1-232.018,48.658-318.803-3.221c-41.924-25.062-63.115-57.308-63.76-89.597H0.018
	c0.674,36.715,24.744,73.394,72.412,101.889c98.546,58.91,260.619,60.547,362.003,3.658c51.345-28.811,77.259-67.11,77.548-105.548
	L481.436,201.661L481.436,201.661z"/>
<g>
</g>
<g>
</g>
<g>
</g>
<g>
</g>
<g>
</g>
<g>
</g>
<g>
</g>
<g>
</g>
<g>
</g>
<g>
</g>
<g>
</g>
<g>
</g>
<g>
</g>
<g>
</g>
<g>
</g>
</svg>
